<svg width="18" height="13" viewBox="0 0 18 13" fill="none" xmlns="http://www.w3.org/2000/svg">
<path d="M13.125 0.375C11.6625 0.375 10.0875 0.675 9 1.5C7.9125 0.675 6.3375 0.375 4.875 0.375C3.7875 0.375 2.6325 0.54 1.665 0.9675C1.1175 1.215 0.75 1.7475 0.75 2.355V10.815C0.75 11.79 1.665 12.51 2.61 12.27C3.345 12.0825 4.125 12 4.875 12C6.045 12 7.29 12.195 8.295 12.69C8.745 12.915 9.255 12.915 9.6975 12.69C10.7025 12.1875 11.9475 12 13.1175 12C13.8675 12 14.6475 12.0825 15.3825 12.27C16.3275 12.5175 17.2425 11.7975 17.2425 10.815V2.355C17.2425 1.7475 16.875 1.215 16.3275 0.9675C15.3675 0.54 14.2125 0.375 13.125 0.375ZM15.75 9.9225C15.75 10.395 15.315 10.74 14.85 10.6575C14.2875 10.5525 13.7025 10.5075 13.125 10.5075C11.85 10.5075 10.0125 10.995 9 11.6325V3C10.0125 2.3625 11.85 1.875 13.125 1.875C13.815 1.875 14.4975 1.9425 15.15 2.085C15.495 2.16 15.75 2.4675 15.75 2.82V9.9225Z" fill="url(#paint0_linear_11_172)"/>
<path d="M10.485 5.25751C10.245 5.25751 10.0275 5.10751 9.95247 4.86751C9.85497 4.57501 10.02 4.25251 10.3125 4.16251C11.4675 3.78751 12.96 3.66751 14.3325 3.82501C14.64 3.86251 14.865 4.14001 14.8275 4.44751C14.79 4.75501 14.5125 4.98001 14.205 4.94251C12.99 4.80001 11.6625 4.91251 10.6575 5.23501C10.5975 5.24251 10.5375 5.25751 10.485 5.25751Z" fill="url(#paint1_linear_11_172)"/>
<path d="M10.485 7.25251C10.245 7.25251 10.0275 7.10251 9.95247 6.86251C9.85497 6.57001 10.02 6.24751 10.3125 6.15751C11.46 5.78251 12.96 5.66251 14.3325 5.82001C14.64 5.85751 14.865 6.13501 14.8275 6.44251C14.79 6.75001 14.5125 6.97501 14.205 6.93751C12.99 6.79501 11.6625 6.90751 10.6575 7.23001C10.5975 7.24501 10.5375 7.25251 10.485 7.25251Z" fill="url(#paint2_linear_11_172)"/>
<path d="M10.485 9.2475C10.245 9.2475 10.0275 9.0975 9.95247 8.8575C9.85497 8.565 10.02 8.2425 10.3125 8.1525C11.46 7.7775 12.96 7.6575 14.3325 7.815C14.64 7.8525 14.865 8.13 14.8275 8.4375C14.79 8.745 14.5125 8.9625 14.205 8.9325C12.99 8.79 11.6625 8.9025 10.6575 9.225C10.5975 9.24 10.5375 9.2475 10.485 9.2475Z" fill="url(#paint3_linear_11_172)"/>
<defs>
<linearGradient id="paint0_linear_11_172" x1="8.99625" y1="0.375" x2="8.99625" y2="12.8588" gradientUnits="userSpaceOnUse">
<stop stop-color="#B6722D"/>
<stop offset="1" stop-color="#784410"/>
</linearGradient>
<linearGradient id="paint1_linear_11_172" x1="12.378" y1="3.75745" x2="12.378" y2="5.25751" gradientUnits="userSpaceOnUse">
<stop stop-color="#B6722D"/>
<stop offset="1" stop-color="#784410"/>
</linearGradient>
<linearGradient id="paint2_linear_11_172" x1="12.378" y1="5.75244" x2="12.378" y2="7.25251" gradientUnits="userSpaceOnUse">
<stop stop-color="#B6722D"/>
<stop offset="1" stop-color="#784410"/>
</linearGradient>
<linearGradient id="paint3_linear_11_172" x1="12.378" y1="7.74744" x2="12.378" y2="9.2475" gradientUnits="userSpaceOnUse">
<stop stop-color="#B6722D"/>
<stop offset="1" stop-color="#784410"/>
</linearGradient>
</defs>
</svg>
