<svg width="32" height="32" viewBox="0 0 32 32" fill="none" xmlns="http://www.w3.org/2000/svg">
<circle cx="16" cy="16" r="16" fill="#070707"/>
<path d="M4 15.0894V22.6681V23H8.43629L6.92009 21.1745L5.5162 21.617L9.89633 18.3532L9.11015 16.8043L11.0756 18.2426H15.568L16.7473 16.417L16.5788 20.7872L17.8143 22.5021H21.4644L19.6674 20.3447L18.8251 21.0638L18.4881 20.5106L23.7106 15.4766L28.4276 14.9787L30 12.8766L27.6415 12.3234L26.7991 11.1064H25.676L25.0583 10.2213H23.7667L23.4298 12.1021H22.9244L22.9806 11.1064L15.905 10L14.5572 12.6553H13.6587L14.3888 10.9404L8.32397 10.4426L4 15.0894Z" fill="#FFB800"/>
<path d="M10.6825 19.4596L8.60475 20.566L10.1771 22.3915H12.5918L11.4687 21.1745L10.6825 21.4511V19.4596Z" fill="#FFB800"/>
<path d="M26.013 18.4638L24.2721 17.0255L21.9698 18.9617L24.8898 19.4596V19.9574H24.2721L24.1037 21.4511L26.013 20.7872V18.4638Z" fill="#FFB800"/>
</svg>
