<svg width="32" height="32" viewBox="0 0 32 32" fill="none" xmlns="http://www.w3.org/2000/svg">
<g clip-path="url(#clip0_14_208)">
<rect x="17.3737" y="2.90857" width="6.6453" height="28.6019" transform="rotate(34.9225 17.3737 2.90857)" fill="#76491D"/>
<rect x="25.5513" y="2.80414" width="6.6453" height="28.6019" transform="rotate(34.9225 25.5513 2.80414)" fill="#B6722D"/>
<g filter="url(#filter0_d_14_208)">
<path d="M12.04 18.81C12.04 18.3233 11.9433 17.94 11.75 17.66C11.5633 17.3733 11.2967 17.17 10.95 17.05C10.61 16.93 10.21 16.87 9.75 16.87H8.4V20.61H9.61C9.93 20.61 10.2333 20.5867 10.52 20.54C10.8133 20.4933 11.0733 20.4067 11.3 20.28C11.5333 20.1533 11.7133 19.9733 11.84 19.74C11.9733 19.5 12.04 19.19 12.04 18.81ZM11.52 13.01C11.52 12.4633 11.3467 12.07 11 11.83C10.66 11.5833 10.13 11.46 9.41 11.46H8.4V14.67H9.51C10.2167 14.67 10.7267 14.54 11.04 14.28C11.36 14.02 11.52 13.5967 11.52 13.01ZM15.42 18.94C15.42 19.74 15.2667 20.4033 14.96 20.93C14.6533 21.4567 14.2333 21.87 13.7 22.17C13.1667 22.47 12.5567 22.6833 11.87 22.81C11.19 22.9367 10.4733 23 9.72 23H5.12V9.14H9.51C10.2233 9.14 10.8967 9.2 11.53 9.32C12.17 9.43333 12.7367 9.62667 13.23 9.9C13.7233 10.1667 14.11 10.53 14.39 10.99C14.6767 11.4433 14.82 12.0067 14.82 12.68C14.82 13.2333 14.7033 13.7133 14.47 14.12C14.2367 14.52 13.9267 14.85 13.54 15.11C13.1533 15.3633 12.7333 15.5467 12.28 15.66C12.7733 15.74 13.26 15.8967 13.74 16.13C14.2267 16.3567 14.6267 16.6967 14.94 17.15C15.26 17.6033 15.42 18.2 15.42 18.94ZM23.1522 8.79C24.1455 8.79 24.9889 8.92333 25.6822 9.19C26.3822 9.45 27.0222 9.82 27.6022 10.3L25.9922 12.24C25.6122 11.9267 25.1922 11.68 24.7322 11.5C24.2722 11.3133 23.7722 11.22 23.2322 11.22C22.6522 11.22 22.1222 11.3867 21.6422 11.72C21.1622 12.0467 20.7789 12.5667 20.4922 13.28C20.2055 13.9867 20.0622 14.9067 20.0622 16.04C20.0622 17.1533 20.1989 18.0633 20.4722 18.77C20.7522 19.47 21.1355 19.9867 21.6222 20.32C22.1089 20.6467 22.6655 20.81 23.2922 20.81C23.9855 20.81 24.5622 20.68 25.0222 20.42C25.4822 20.16 25.9055 19.8767 26.2922 19.57L27.7822 21.47C27.2622 21.9833 26.6222 22.4233 25.8622 22.79C25.1022 23.1567 24.1855 23.34 23.1122 23.34C21.8589 23.34 20.7455 23.0633 19.7722 22.51C18.8055 21.95 18.0455 21.13 17.4922 20.05C16.9455 18.9633 16.6722 17.6267 16.6722 16.04C16.6722 14.4933 16.9555 13.18 17.5222 12.1C18.0955 11.02 18.8722 10.2 19.8522 9.64C20.8322 9.07333 21.9322 8.79 23.1522 8.79Z" fill="#E5E5E5"/>
</g>
</g>
<defs>
<filter id="filter0_d_14_208" x="5.12" y="7.78998" width="24.6622" height="16.55" filterUnits="userSpaceOnUse" color-interpolation-filters="sRGB">
<feFlood flood-opacity="0" result="BackgroundImageFix"/>
<feColorMatrix in="SourceAlpha" type="matrix" values="0 0 0 0 0 0 0 0 0 0 0 0 0 0 0 0 0 0 127 0" result="hardAlpha"/>
<feOffset dx="1"/>
<feGaussianBlur stdDeviation="0.5"/>
<feComposite in2="hardAlpha" operator="out"/>
<feColorMatrix type="matrix" values="0 0 0 0 0.0333333 0 0 0 0 0.0333333 0 0 0 0 0.0333333 0 0 0 1 0"/>
<feBlend mode="normal" in2="BackgroundImageFix" result="effect1_dropShadow_14_208"/>
<feBlend mode="normal" in="SourceGraphic" in2="effect1_dropShadow_14_208" result="shape"/>
</filter>
<clipPath id="clip0_14_208">
<rect width="32" height="32" fill="white"/>
</clipPath>
</defs>
</svg>
