<svg width="250" height="37" viewBox="0 0 250 37" fill="none" xmlns="http://www.w3.org/2000/svg">
<path d="M159.58 33.4421H161.247V31.7741H159.58V33.4421ZM159.58 33.8591V35.527H161.247V33.8591H159.58ZM147.237 32.6081L146.077 33.8067L146.086 33.8159L146.096 33.8249L147.237 32.6081ZM147.279 12.5929L148.419 13.8097L147.279 12.5929ZM159.58 11.342H161.247V9.67402H159.58V11.342ZM159.58 11.7589V13.4269H161.247V11.7589H159.58ZM147.654 12.9265L148.749 14.1843L148.761 14.1744L148.772 14.1643L147.654 12.9265ZM147.612 32.3162L146.496 33.556L147.612 32.3162ZM157.912 33.4421V33.8591H161.247V33.4421H157.912ZM159.58 32.1911H152.616V35.527H159.58V32.1911ZM152.616 32.1911C151.342 32.1911 150.356 32.0915 149.627 31.9218C148.881 31.7485 148.526 31.5306 148.378 31.3914L146.096 33.8249C146.837 34.5196 147.823 34.9272 148.871 35.1709C149.934 35.4181 151.193 35.527 152.616 35.527V32.1911ZM148.397 31.4095C148.009 31.0344 147.612 30.2083 147.612 28.48H144.276C144.276 30.5879 144.741 32.5139 146.077 33.8067L148.397 31.4095ZM147.612 28.48V16.8044H144.276V28.48H147.612ZM147.612 16.8044C147.612 15.0159 148.025 14.1795 148.419 13.8097L146.138 11.3761C144.753 12.6743 144.276 14.6455 144.276 16.8044H147.612ZM148.419 13.8097C148.57 13.6683 148.924 13.4512 149.661 13.2786C150.383 13.1094 151.357 13.0099 152.616 13.0099V9.67402C151.206 9.67402 149.956 9.78302 148.899 10.0308C147.857 10.2752 146.876 10.6835 146.138 11.3761L148.419 13.8097ZM152.616 13.0099H159.58V9.67402H152.616V13.0099ZM157.912 11.342V11.7589H161.247V11.342H157.912ZM159.58 10.091H152.616V13.4269H159.58V10.091ZM152.616 10.091C151.315 10.091 150.152 10.1934 149.159 10.4272C148.176 10.6585 147.25 11.0435 146.536 11.6887L148.772 14.1643C148.919 14.0311 149.251 13.8324 149.923 13.6744C150.583 13.519 151.47 13.4269 152.616 13.4269V10.091ZM146.558 11.6687C145.162 12.8853 144.693 14.7742 144.693 16.8044H148.029C148.029 15.1652 148.423 14.4688 148.749 14.1843L146.558 11.6687ZM144.693 16.8044V28.48H148.029V16.8044H144.693ZM144.693 28.48C144.693 30.4782 145.145 32.3401 146.496 33.556L148.728 31.0764C148.411 30.7912 148.029 30.0957 148.029 28.48H144.693ZM146.496 33.556C147.209 34.1973 148.144 34.5676 149.122 34.7879C150.118 35.0118 151.293 35.11 152.616 35.11V31.7741C151.437 31.7741 150.527 31.6847 149.855 31.5333C149.166 31.3783 148.849 31.1857 148.728 31.0764L146.496 33.556ZM152.616 35.11H159.58V31.7741H152.616V35.11ZM186.977 32.8583L188.065 34.1228L188.082 34.1081L186.977 32.8583ZM173.676 32.8583L172.556 34.0952L172.573 34.1099L173.676 32.8583ZM173.676 12.4261L174.778 13.6778L174.795 13.663L173.676 12.4261ZM186.977 12.4261L185.873 13.676L185.889 13.6904L186.977 12.4261ZM174.009 32.5664L172.911 33.8217L172.92 33.8295L172.929 33.8372L174.009 32.5664ZM186.644 32.5664L187.708 33.8504L187.718 33.8427L187.727 33.835L186.644 32.5664ZM186.644 12.718L185.561 13.9866L185.57 13.9943L185.579 14.0019L186.644 12.718ZM174.009 12.718L175.089 13.9889L175.098 13.9811L175.107 13.9733L174.009 12.718ZM187.102 28.7719C187.102 29.9865 186.692 30.8848 185.873 31.6085L188.082 34.1081C189.654 32.7192 190.438 30.8931 190.438 28.7719H187.102ZM185.889 31.594C185.187 32.1988 183.514 32.7332 180.306 32.7332V36.0691C183.602 36.0691 186.377 35.575 188.065 34.1226L185.889 31.594ZM180.306 32.7332C178.757 32.7332 177.527 32.6098 176.587 32.3909C175.636 32.1696 175.082 31.8742 174.778 31.6067L172.573 34.1099C173.437 34.871 174.572 35.347 175.831 35.6399C177.1 35.9355 178.602 36.0691 180.306 36.0691V32.7332ZM174.795 31.6215C173.999 30.9018 173.592 30 173.592 28.7719H170.256C170.256 30.8796 171.017 32.702 172.557 34.0951L174.795 31.6215ZM173.592 28.7719V16.4709H170.256V28.7719H173.592ZM173.592 16.4709C173.592 15.243 173.998 14.3647 174.778 13.6777L172.573 11.1746C171.018 12.5446 170.256 14.3628 170.256 16.4709H173.592ZM174.795 13.663C175.461 13.0596 177.096 12.5095 180.306 12.5095V9.17365C177.011 9.17365 174.225 9.67995 172.557 11.1893L174.795 13.663ZM180.306 12.5095C183.508 12.5095 185.172 13.0567 185.873 13.6759L188.082 11.1763C186.392 9.68283 183.608 9.17365 180.306 9.17365V12.5095ZM185.889 13.6904C186.693 14.3819 187.102 15.2568 187.102 16.4709H190.438C190.438 14.349 189.652 12.5275 188.065 11.1618L185.889 13.6904ZM187.102 16.4709V28.7719H190.438V16.4709H187.102ZM170.673 28.7719C170.673 30.7802 171.415 32.5132 172.911 33.8217L175.107 31.3111C174.379 30.6736 174.009 29.8769 174.009 28.7719H170.673ZM172.929 33.8372C173.765 34.5479 174.854 34.9874 176.051 35.257C177.26 35.5292 178.688 35.6521 180.306 35.6521V32.3162C178.838 32.3162 177.673 32.2028 176.784 32.0025C175.882 31.7995 175.365 31.5301 175.089 31.2956L172.929 33.8372ZM180.306 35.6521C183.431 35.6521 186.08 35.2002 187.708 33.8504L185.579 31.2824C184.927 31.8228 183.352 32.3162 180.306 32.3162V35.6521ZM187.727 33.835C189.254 32.5312 190.021 30.7949 190.021 28.7719H186.685C186.685 29.8622 186.313 30.6556 185.561 31.2978L187.727 33.835ZM190.021 28.7719V16.4709H186.685V28.7719H190.021ZM190.021 16.4709C190.021 14.447 189.252 12.7144 187.708 11.4341L185.579 14.0019C186.315 14.612 186.685 15.3813 186.685 16.4709H190.021ZM187.727 11.4494C186.096 10.0574 183.436 9.59063 180.306 9.59063V12.9265C183.346 12.9265 184.912 13.4327 185.561 13.9866L187.727 11.4494ZM180.306 9.59063C178.686 9.59063 177.254 9.71734 176.041 9.99857C174.838 10.2774 173.746 10.7317 172.911 11.4628L175.107 13.9733C175.384 13.7313 175.898 13.456 176.794 13.2483C177.679 13.043 178.84 12.9265 180.306 12.9265V9.59063ZM172.929 11.4471C171.417 12.7325 170.673 14.462 170.673 16.4709H174.009C174.009 15.3663 174.378 14.5938 175.089 13.9889L172.929 11.4471ZM170.673 16.4709V28.7719H174.009V16.4709H170.673ZM203.169 33.8591H201.501V35.527H203.169V33.8591ZM203.169 11.342V9.67402H201.501V11.342H203.169ZM216.679 11.8006L216.121 13.3726L216.137 13.378L216.679 11.8006ZM218.722 13.0516L217.479 14.1638L217.494 14.1805L217.51 14.1968L218.722 13.0516ZM219.682 14.8863L218.056 15.2614L218.06 15.2756L219.682 14.8863ZM219.682 30.4398L218.06 30.0505L218.052 30.0815L218.046 30.1127L219.682 30.4398ZM218.764 32.2328L219.977 33.378L218.764 32.2328ZM216.721 33.4421L217.218 35.0341L217.241 35.0271L217.263 35.0194L216.721 33.4421ZM203.586 11.7589V10.091H201.918V11.7589H203.586ZM203.586 33.4421H201.918V35.11H203.586V33.4421ZM216.471 33.0668L216.965 34.6598L216.982 34.6547L216.998 34.6492L216.471 33.0668ZM218.389 31.9826L219.568 33.162L219.586 33.1442L219.603 33.1258L218.389 31.9826ZM219.265 30.3147L217.646 29.9102L217.64 29.9352L217.635 29.9604L219.265 30.3147ZM219.265 15.0114L217.646 15.4159V15.416L219.265 15.0114ZM218.347 13.3018L219.562 12.1586L218.347 13.3018ZM216.429 12.1759L215.885 13.7528L215.902 13.7583L216.429 12.1759ZM204.837 33.8591V11.342H201.501V33.8591H204.837ZM203.169 13.0099H213.26V9.67402H203.169V13.0099ZM213.26 13.0099C214.58 13.0099 215.509 13.1553 216.121 13.3726L217.237 10.2287C216.126 9.8344 214.775 9.67402 213.26 9.67402V13.0099ZM216.137 13.378C216.842 13.6204 217.249 13.9063 217.479 14.1638L219.965 11.9394C219.251 11.1406 218.295 10.5924 217.221 10.2233L216.137 13.378ZM217.51 14.1968C217.763 14.465 217.951 14.8042 218.056 15.2614L221.307 14.5113C221.079 13.5229 220.627 12.6389 219.935 11.9064L217.51 14.1968ZM218.06 15.2756C218.192 15.828 218.264 16.4466 218.264 17.138H221.6C221.6 16.2172 221.504 15.3346 221.303 14.4971L218.06 15.2756ZM218.264 17.138V28.1881H221.6V17.138H218.264ZM218.264 28.1881C218.264 28.8796 218.192 29.4981 218.06 30.0505L221.303 30.8291C221.504 29.9916 221.6 29.109 221.6 28.1881H218.264ZM218.046 30.1127C217.966 30.5103 217.802 30.8219 217.552 31.0876L219.977 33.378C220.671 32.643 221.119 31.7593 221.317 30.7669L218.046 30.1127ZM217.552 31.0876C217.32 31.3333 216.902 31.616 216.179 31.8647L217.263 35.0194C218.319 34.6565 219.264 34.1331 219.977 33.378L217.552 31.0876ZM216.223 31.85C215.556 32.0587 214.587 32.1911 213.26 32.1911V35.527C214.768 35.527 216.107 35.3814 217.218 35.0341L216.223 31.85ZM213.26 32.1911H203.169V35.527H213.26V32.1911ZM213.26 10.091H203.586V13.4269H213.26V10.091ZM201.918 11.7589V33.4421H205.254V11.7589H201.918ZM203.586 35.11H213.26V31.7741H203.586V35.11ZM213.26 35.11C214.677 35.11 215.934 34.9797 216.965 34.6598L215.976 31.4737C215.395 31.6542 214.512 31.7741 213.26 31.7741V35.11ZM216.998 34.6492C217.986 34.3199 218.882 33.8479 219.568 33.162L217.209 30.8032C217.006 31.0069 216.623 31.2577 215.943 31.4844L216.998 34.6492ZM219.603 33.1258C220.257 32.431 220.692 31.6015 220.894 30.669L217.635 29.9604C217.559 30.3065 217.41 30.5892 217.174 30.8394L219.603 33.1258ZM220.883 30.7192C221.085 29.9084 221.183 29.0628 221.183 28.1881H217.847C217.847 28.8146 217.777 29.3867 217.646 29.9102L220.883 30.7192ZM221.183 28.1881V17.138H217.847V28.1881H221.183ZM221.183 17.138C221.183 16.2634 221.085 15.4178 220.883 14.6069L217.646 15.416C217.777 15.9394 217.847 16.5115 217.847 17.138H221.183ZM220.883 14.6069C220.651 13.6802 220.214 12.8513 219.562 12.1586L217.133 14.4449C217.37 14.6974 217.545 15.0083 217.646 15.4159L220.883 14.6069ZM219.562 12.1586C218.873 11.4265 217.964 10.9293 216.956 10.5936L215.902 13.7583C216.562 13.9786 216.932 14.2319 217.133 14.4449L219.562 12.1586ZM216.973 10.5991C215.924 10.2376 214.664 10.091 213.26 10.091V13.4269C214.469 13.4269 215.321 13.5582 215.885 13.7527L216.973 10.5991ZM248.332 33.4421H250V31.7741H248.332V33.4421ZM248.332 33.8591V35.527H250V33.8591H248.332ZM234.28 33.8591H232.612V35.527H234.28V33.8591ZM234.28 11.342V9.67402H232.612V11.342H234.28ZM248.332 11.342H250V9.67402H248.332V11.342ZM248.332 11.7589V13.4269H250V11.7589H248.332ZM234.697 11.7589V10.091H233.029V11.7589H234.697ZM234.697 22.2252H233.029V23.8932H234.697V22.2252ZM244.955 22.2252H246.622V20.5573H244.955V22.2252ZM244.955 22.6422V24.3101H246.622V22.6422H244.955ZM234.697 22.6422V20.9743H233.029V22.6422H234.697ZM234.697 33.4421H233.029V35.11H234.697V33.4421ZM246.664 33.4421V33.8591H250V33.4421H246.664ZM248.332 32.1911H234.28V35.527H248.332V32.1911ZM235.948 33.8591V11.342H232.612V33.8591H235.948ZM234.28 13.0099H248.332V9.67402H234.28V13.0099ZM246.664 11.342V11.7589H250V11.342H246.664ZM248.332 10.091H234.697V13.4269H248.332V10.091ZM233.029 11.7589V22.2252H236.365V11.7589H233.029ZM234.697 23.8932H244.955V20.5573H234.697V23.8932ZM243.287 22.2252V22.6422H246.622V22.2252H243.287ZM244.955 20.9743H234.697V24.3101H244.955V20.9743ZM233.029 22.6422V33.4421H236.365V22.6422H233.029ZM234.697 35.11H248.332V31.7741H234.697V35.11Z" fill="#150F00"/>
<path d="M21.016 36.0274H1.80137C1.16755 36.0274 0.700532 35.8939 0.400304 35.6271C0.133434 35.3268 0 34.8598 0 34.226V1.80137C0 1.16755 0.133434 0.717213 0.400304 0.450342C0.700532 0.150114 1.16755 0 1.80137 0H17.7635C21.0326 0 23.4511 0.633815 25.019 1.90145C26.5869 3.13572 27.3708 5.05384 27.3708 7.65581V10.0576C27.3708 11.4587 27.1206 12.6096 26.6202 13.5103C26.1532 14.3776 25.4193 15.0281 24.4185 15.4617C26.5535 15.6619 28.138 16.3958 29.1722 17.6634C30.2063 18.931 30.7233 20.7824 30.7233 23.2176V27.8211C30.7233 30.6233 29.9227 32.6915 28.3215 34.0258C26.7537 35.3602 24.3185 36.0274 21.016 36.0274ZM11.2586 8.50646V13.9106H15.5118C16.1456 13.9106 16.6126 13.7438 16.9128 13.4102C17.2464 13.0766 17.4132 12.5762 17.4132 11.909V10.508C17.4132 9.84081 17.2464 9.34043 16.9128 9.00684C16.6126 8.67325 16.1456 8.50646 15.5118 8.50646H11.2586ZM11.2586 21.6164V27.5209H17.7635C18.3973 27.5209 18.8643 27.3541 19.1646 27.0205C19.4981 26.6869 19.6649 26.1866 19.6649 25.5194V23.5679C19.6649 22.9007 19.4981 22.417 19.1646 22.1168C18.8643 21.7832 18.3973 21.6164 17.7635 21.6164H11.2586ZM61.277 36.0274H38.0594C37.4256 36.0274 36.9586 35.8939 36.6583 35.6271C36.3915 35.3268 36.258 34.8598 36.258 34.226V1.80137C36.258 1.16755 36.3915 0.717213 36.6583 0.450342C36.9586 0.150114 37.4256 0 38.0594 0H61.277C61.9109 0 62.3612 0.150114 62.6281 0.450342C62.9283 0.717213 63.0784 1.16755 63.0784 1.80137V7.65581C63.0784 8.28963 62.9283 8.75665 62.6281 9.05688C62.3612 9.32375 61.9109 9.45718 61.277 9.45718H47.4665V13.3101H57.224C57.8578 13.3101 58.3081 13.4602 58.575 13.7605C58.8752 14.0273 59.0253 14.4777 59.0253 15.1115V20.4655C59.0253 21.0994 58.8752 21.5664 58.575 21.8666C58.3081 22.1335 57.8578 22.2669 57.224 22.2669H47.4665V26.5702H61.277C61.9109 26.5702 62.3612 26.7203 62.6281 27.0205C62.9283 27.2874 63.0784 27.7377 63.0784 28.3715V34.226C63.0784 34.8598 62.9283 35.3268 62.6281 35.6271C62.3612 35.8939 61.9109 36.0274 61.277 36.0274ZM82.0577 10.508L79.7059 18.1138H87.5618L85.21 10.508C85.0766 10.2078 84.9265 9.99092 84.7597 9.85749C84.6263 9.72405 84.4595 9.65733 84.2593 9.65733H83.0084C82.8082 9.65733 82.6247 9.72405 82.458 9.85749C82.3245 9.99092 82.1911 10.2078 82.0577 10.508ZM79.2055 34.226C79.2055 34.8598 79.0554 35.3268 78.7551 35.6271C78.4883 35.8939 78.0379 36.0274 77.4041 36.0274H70.0485C69.4147 36.0274 68.9477 35.8939 68.6475 35.6271C68.3806 35.3268 68.2472 34.8598 68.2472 34.226V21.016C68.2472 20.0152 68.3973 18.8643 68.6975 17.5633C69.0311 16.2624 69.5315 14.7445 70.1986 13.0099L74.552 1.65126C74.7521 1.08416 75.0523 0.667173 75.4526 0.400306C75.8863 0.133435 76.4367 0 77.1039 0H90.5641C91.1979 0 91.715 0.133435 92.1153 0.400306C92.549 0.667173 92.8659 1.08416 93.066 1.65126L97.4193 13.0099C98.0865 14.7445 98.5702 16.2624 98.8704 17.5633C99.204 18.8643 99.3708 20.0152 99.3708 21.016V34.226C99.3708 34.8598 99.2207 35.3268 98.9205 35.6271C98.6536 35.8939 98.2032 36.0274 97.5694 36.0274H90.0137C89.3465 36.0274 88.8461 35.8939 88.5126 35.6271C88.2123 35.3268 88.0622 34.8598 88.0622 34.226V27.2207H79.2055V34.226ZM116.858 9.00684V15.4117H120.61C121.478 15.4117 122.062 15.1949 122.362 14.7612C122.662 14.2942 122.812 13.7271 122.812 13.0599V11.3586C122.812 10.6915 122.662 10.141 122.362 9.70737C122.062 9.24035 121.478 9.00684 120.61 9.00684H116.858ZM115.056 36.0274H107.35C106.717 36.0274 106.25 35.8939 105.949 35.6271C105.682 35.3268 105.549 34.8598 105.549 34.226V1.80137C105.549 1.16755 105.682 0.717213 105.949 0.450342C106.25 0.150114 106.717 0 107.35 0H124.013C127.749 0 130.318 0.783928 131.719 2.35179C133.153 3.88629 133.87 5.88781 133.87 8.35635V10.6581C133.87 12.0592 133.654 13.2601 133.22 14.2608C132.82 15.2282 132.102 15.9288 131.068 16.3624C132.87 16.5626 134.321 17.2965 135.422 18.5641C136.556 19.8317 137.123 21.5163 137.123 23.6179V34.226C137.123 34.8598 136.973 35.3268 136.673 35.6271C136.406 35.8939 135.955 36.0274 135.322 36.0274H127.566C126.932 36.0274 126.465 35.8939 126.165 35.6271C125.898 35.3268 125.764 34.8598 125.764 34.226V26.5702C125.764 25.8363 125.614 25.3025 125.314 24.969C125.047 24.602 124.563 24.4185 123.863 24.4185H116.858V34.226C116.858 34.8598 116.707 35.3268 116.407 35.6271C116.14 35.8939 115.69 36.0274 115.056 36.0274Z" fill="#150F00"/>
</svg>
